<?xml version="1.0" encoding="UTF-8" standalone="no"?>
<!DOCTYPE svg PUBLIC "-//W3C//DTD SVG 1.1//EN"
 "http://www.w3.org/Graphics/SVG/1.1/DTD/svg11.dtd">
<!-- Generated by graphviz version 14.1.5 (20260411.2331)
 -->
<!-- Title: ArvoreB Pages: 1 -->
<svg width="174pt" height="118pt"
 viewBox="0.00 0.00 174.00 118.00" xmlns="http://www.w3.org/2000/svg" xmlns:xlink="http://www.w3.org/1999/xlink">
<g id="graph0" class="graph" transform="scale(1 1) rotate(0) translate(4 114)">
<title>ArvoreB</title>
<polygon fill="white" stroke="none" points="-4,4 -4,-114 169.75,-114 169.75,4 -4,4"/>
<!-- node0000020A02960AF0 -->
<g id="node1" class="node">
<title>node0000020A02960AF0</title>
<polygon fill="none" stroke="black" points="48.5,-73.5 48.5,-109.5 102.5,-109.5 102.5,-73.5 48.5,-73.5"/>
<text xml:space="preserve" text-anchor="middle" x="75.25" y="-86.45" font-family="Times New Roman,serif" font-size="14.00">30</text>
</g>
<!-- node0000020A02961390 -->
<g id="node2" class="node">
<title>node0000020A02961390</title>
<polygon fill="none" stroke="black" points="0,-0.5 0,-36.5 59,-36.5 59,-0.5 0,-0.5"/>
<text xml:space="preserve" text-anchor="middle" x="14.75" y="-13.45" font-family="Times New Roman,serif" font-size="14.00">10</text>
<polyline fill="none" stroke="black" points="29.5,-0.5 29.5,-36.5"/>
<text xml:space="preserve" text-anchor="middle" x="44.25" y="-13.45" font-family="Times New Roman,serif" font-size="14.00">20</text>
</g>
<!-- node0000020A02960AF0&#45;&gt;node0000020A02961390 -->
<g id="edge1" class="edge">
<title>node0000020A02960AF0&#45;&gt;node0000020A02961390</title>
<path fill="none" stroke="black" d="M64.36,-73.31C59.05,-65.12 52.58,-55.12 46.66,-45.98"/>
<polygon fill="black" stroke="black" points="49.73,-44.29 41.36,-37.8 43.86,-48.09 49.73,-44.29"/>
</g>
<!-- node0000020A02961210 -->
<g id="node3" class="node">
<title>node0000020A02961210</title>
<polygon fill="none" stroke="black" points="77.25,-0.5 77.25,-36.5 165.75,-36.5 165.75,-0.5 77.25,-0.5"/>
<text xml:space="preserve" text-anchor="middle" x="92" y="-13.45" font-family="Times New Roman,serif" font-size="14.00">40</text>
<polyline fill="none" stroke="black" points="106.75,-0.5 106.75,-36.5"/>
<text xml:space="preserve" text-anchor="middle" x="121.5" y="-13.45" font-family="Times New Roman,serif" font-size="14.00">50</text>
<polyline fill="none" stroke="black" points="136.25,-0.5 136.25,-36.5"/>
<text xml:space="preserve" text-anchor="middle" x="151" y="-13.45" font-family="Times New Roman,serif" font-size="14.00">60</text>
</g>
<!-- node0000020A02960AF0&#45;&gt;node0000020A02961210 -->
<g id="edge2" class="edge">
<title>node0000020A02960AF0&#45;&gt;node0000020A02961210</title>
<path fill="none" stroke="black" d="M86.64,-73.31C91.95,-65.12 98.42,-55.12 104.34,-45.98"/>
<polygon fill="black" stroke="black" points="107.14,-48.09 109.64,-37.8 101.27,-44.29 107.14,-48.09"/>
</g>
</g>
</svg>
